<?xml version="1.0" encoding="UTF-8" standalone="no"?>
<!DOCTYPE svg PUBLIC "-//W3C//DTD SVG 1.1//EN" "http://www.w3.org/Graphics/SVG/1.1/DTD/svg11.dtd">
<!-- Created with Vectornator (http://vectornator.io/) -->
<svg xmlns:vectornator="http://vectornator.io" height="100%"
     stroke-miterlimit="10" style="fill-rule:nonzero;clip-rule:evenodd;stroke-linecap:round;stroke-linejoin:round;"
     version="1.1" viewBox="0 0 1024 1024" width="100%" xml:space="preserve"
     xmlns="http://www.w3.org/2000/svg">
<defs/>
    <clipPath id="ArtboardFrame">
<rect height="1024" width="1024" x="0" y="0"/>
</clipPath>
    <g clip-path="url(#ArtboardFrame)" id="Layer-1" vectornator:layerName="Layer 1" visibility="hidden">
<path d="M0 512C0 229.23 229.23 0 512 0C794.77 0 1024 229.23 1024 512C1024 794.77 794.77 1024 512 1024C229.23 1024 0 794.77 0 512Z"
      fill="none" opacity="1" stroke="#122350" stroke-linecap="butt" stroke-linejoin="round" stroke-width="4"/>
</g>
    <g id="Layer-3-copy-copy" vectornator:layerName="Layer 3 copy copy">
<path d="M879.204 352.269C878.874 294.641 850.563 248.106 816 248.304C804.6 248.369 793.995 253.494 784.84 262.426C766.24 280.576 753.875 314.354 754.096 352.975C754.426 410.603 782.664 457.212 817.227 457.014C851.789 456.816 879.534 409.897 879.204 352.269ZM848.426 352.48C848.629 387.772 836.671 417.319 816.68 417.434C796.689 417.549 784.336 388.133 784.134 352.841C784.009 331.038 788.756 311.058 796.991 299.365C801.979 292.283 808.378 287.93 815.88 287.887C835.871 287.773 848.224 317.189 848.426 352.48ZM839.178 352.522C839.003 321.87 828.638 297.063 815.996 297.135C811.826 297.159 807.901 299.916 804.561 304.659C797.775 314.294 793.264 332.258 793.382 352.8C793.558 383.451 803.923 408.259 816.565 408.186C829.207 408.114 839.354 383.173 839.178 352.522ZM815.354 236.321C803.854 199.454 775.681 139.505 735.24 123.035C685.208 102.66 579.312 96.1105 502.804 96.549C434.145 96.9425 346.522 96.9322 298.385 114.256C264.022 126.622 245.927 146.137 236.693 166.987C253.779 156.028 274.002 149.536 295.804 149.411L308.899 149.352C315.75 144.272 323.806 139.644 333.254 135.778C375.509 118.488 452.455 118.528 512.741 118.183C579.918 117.798 681.425 128.891 704.647 148.105C726.163 165.907 747.926 205.916 754.095 236.594L813.358 236.552C814.01 236.456 814.696 236.377 815.354 236.321ZM785.192 457.305C759.927 438.756 743.112 398.788 742.851 353.099C742.618 312.509 755.54 275.297 777.036 254.323C779.214 252.197 781.496 250.353 783.817 248.596L751.707 248.665C717.144 248.863 689.399 295.77 689.73 353.484C689.891 381.507 696.731 406.756 707.586 425.467C711.259 419.312 717.967 415.928 724.784 416.438C727.181 416.617 729.55 417.237 731.822 418.404C740.91 423.076 744.521 434.288 739.85 443.376C739.781 443.509 736.728 449.251 734.641 453.239C740.419 456.131 746.526 457.708 752.861 457.671C752.9 457.671 752.97 457.671 753.009 457.671L785.192 457.305ZM741.596 237.76C738.026 220.945 729.221 200.688 718.419 183.705C706.75 176.308 692.623 170.489 671.732 166.749C665.509 165.634 652.505 164.88 637.243 164.239C668.787 183.618 689.964 218.217 690.192 257.966L690.397 287.263C701.691 260.945 719.746 242.284 741.596 237.76ZM733.527 435.71C733.818 431.746 731.756 427.747 728.008 425.82C726.758 425.178 725.473 424.826 724.156 424.727C720.201 424.432 716.267 426.498 714.34 430.246C714.264 430.393 709.648 439.259 707.958 442.482C703.129 451.689 698.184 460.896 693.503 469.478C692.802 470.763 692.129 472.021 691.448 473.26C689.032 477.655 688.78 477.654 686.675 481.346C680.489 492.184 673.865 503.668 672.575 505.011C672.191 505.114 671.903 505.197 671.319 505.312C669.229 505.727 666.286 506.143 662.667 506.461C655.929 507.052 647.045 507.372 636.629 507.539C626.432 507.702 615.547 507.699 604.815 507.533C602.109 507.49 594.79 507.285 594.678 507.282C593.273 507.243 591.917 507.485 590.685 507.966C589.434 508.454 588.322 509.212 587.366 510.126C585.497 511.912 584.292 514.382 584.216 517.169C584.138 519.978 585.252 522.587 587.06 524.481C588.863 526.376 591.367 527.553 594.176 527.63C594.313 527.634 601.709 527.837 604.462 527.88C615.39 528.051 626.578 528.05 637.016 527.883C664.997 527.435 679.094 526.205 685.078 521.306C687.114 519.638 689.994 515.684 693.536 510.096C696.125 506.057 699.76 499.72 703.302 493.48C703.899 492.427 704.438 491.63 705.065 490.513C706.619 487.744 707.578 486.268 709.323 483.095C710.015 481.835 710.739 480.543 711.451 479.238C716.191 470.548 721.102 461.243 725.979 451.946C727.685 448.694 732.352 439.723 732.434 439.562C733.077 438.312 733.43 437.031 733.527 435.71ZM711.458 630.17C712.135 623.928 686.598 593.403 676.235 579.203C661.382 558.849 647.778 543.492 643.943 538.358C637.366 538.442 629.806 537.805 621.301 537.942C613.16 538.072 607.008 538.041 598.44 537.969C598.44 537.969 598.007 554.026 603.737 564.433C609.467 574.84 621.468 590.471 629.645 600.497C637.822 610.523 652.135 626.583 653.152 629.025C654.169 631.467 620.515 661.551 620.459 664.166C620.402 666.782 623.508 675.135 631.714 682.834C639.92 690.534 646.964 692.09 648.18 692.009C649.396 691.929 710.561 638.444 711.458 630.17ZM701.277 437.481C695.754 429.284 691.017 419.876 687.316 409.355C680.443 435.727 664.087 458.28 642.099 473.185C661.053 472.842 670.298 472.378 682.786 471.967C683.348 470.951 683.673 470.428 684.254 469.371C684.931 468.14 685.612 466.865 686.309 465.589C690.965 457.051 695.881 447.911 700.69 438.742C700.864 438.41 701.049 437.917 701.277 437.481ZM678.162 380.837L677.466 258.022C677.156 203.835 632.965 160.194 578.778 160.504L295.861 162.136C241.673 162.447 198.032 206.638 198.343 260.825L199.038 383.566C199.349 437.753 243.54 481.468 297.727 481.157L580.57 479.526C634.758 479.215 678.473 435.024 678.162 380.837ZM644.499 381.061C644.703 416.646 616.005 445.659 580.42 445.863L297.503 447.495C261.918 447.698 232.905 419 232.701 383.415L231.932 260.601C231.728 225.016 260.5 196.003 296.085 195.799L578.928 194.168C614.513 193.964 643.6 222.662 643.804 258.246L644.499 381.061ZM657.033 918.516C655.909 914.413 644.946 907.435 628.533 898.593C611.737 889.545 590.575 881.807 589.31 879.606C588.63 878.424 592.439 772.817 591.644 789.184C591.061 801.171 592.497 758.78 593.322 734.278C590.607 734.51 587.697 734.565 584.44 733.356C582.284 732.556 579.466 730.868 577.904 727.614C576.521 724.736 576.755 721.843 577.349 719.478C563.411 719.54 544.206 719.626 525.116 719.711C525.355 724.513 527.082 759.48 529.104 801.005C531.654 853.384 534.437 909.253 536.333 912.174C539.831 917.563 605.858 926.679 630.362 927.218C654.867 927.757 657.21 919.164 657.033 918.516ZM642.318 721.334C642.533 714.952 642.429 709.882 642.183 707.647C641.196 698.708 619.061 682.595 619.061 682.595C619.061 682.595 608.944 688.163 600.922 696.363C592.791 704.675 586.953 715.992 585.347 721.07C582.156 731.16 606.517 723.269 606.517 723.269C606.517 723.27 623.048 778.409 631.975 774.503C638.67 771.572 641.673 740.481 642.318 721.334ZM626.145 611.906C625.26 610.857 624.295 609.738 623.467 608.737C623.292 608.523 622.604 607.677 621.905 606.82C613.504 596.519 601.432 580.838 595.028 569.207C590.666 561.285 589.345 553.21 588.861 546.817C586.313 548.598 583.576 550.163 580.594 551.293C580.774 591.614 581.013 645.013 581.152 676.253C581.21 689.168 575.568 700.615 566.721 708.65L582.184 708.581C585.31 702.73 589.323 696.4 595.051 690.545C603.424 681.986 612.354 676.985 614.075 676.032C611.922 671.957 610.447 668.446 610.544 663.988C610.599 661.423 611.274 660.208 611.633 659.47C612.018 658.682 612.359 658.207 612.662 657.764C613.253 656.897 613.753 656.238 614.353 655.537C615.534 654.157 616.974 652.699 618.624 651.005C620.801 648.769 623.601 646.001 626.285 643.35L626.145 611.906ZM624.141 295.327C624.054 280.177 620.553 268.789 613.63 261.192C606.708 253.596 596.411 249.858 582.654 249.937C568.533 250.018 556.867 255.257 547.655 265.704C538.442 276.151 533.83 289.282 533.92 304.978C533.988 316.735 536.961 325.915 542.848 332.609C548.735 339.303 556.73 342.622 566.79 342.564C572.123 342.534 577.127 341.491 581.721 339.464C586.316 337.438 590.437 334.491 594.111 330.531C591.275 343.213 586.643 352.835 580.257 359.447C573.871 366.06 565.932 369.413 556.478 369.468C552.114 369.493 547.846 368.823 543.595 367.453C539.345 366.084 535.368 364.011 531.656 361.366L527.178 385.801C531.794 387.593 536.192 388.927 540.439 389.811C544.687 390.696 548.814 391.111 552.875 391.088C564.147 391.023 574.041 388.967 582.442 384.889C590.842 380.811 597.91 374.647 603.741 366.371C610.234 357.243 615.317 346.433 618.912 333.898C622.507 321.362 624.216 308.478 624.141 295.327ZM598.145 289.376C598.196 298.224 595.962 305.737 591.512 311.824C587.062 317.91 581.726 320.886 575.424 320.922C570.757 320.949 567.02 319.504 564.306 316.458C561.591 313.413 560.211 309.232 560.181 303.899C560.129 294.809 562.261 287.229 566.59 281.083C570.918 274.937 576.354 271.799 582.899 271.762C587.444 271.736 591.094 273.369 593.871 276.596C596.647 279.822 598.114 284.043 598.145 289.376ZM587.03 534.395C580.329 531.457 575.714 524.746 575.928 516.984C576.129 509.716 580.633 503.658 586.806 500.806C582.164 495.701 575.557 492.412 568.124 492.455L524.4 492.724C520.92 492.744 517.651 493.47 514.642 494.765C511.61 496.062 508.884 497.886 506.602 500.202C502.066 504.8 499.317 511.161 499.357 518.139C499.397 525.117 502.25 531.392 506.836 535.937C511.424 540.482 517.739 543.295 524.699 543.255L568.424 542.986C575.885 542.944 582.445 539.588 587.03 534.395ZM569.058 552.454C568.855 552.459 568.67 552.529 568.466 552.531C557.535 552.598 535.673 552.732 524.741 552.8C505.524 552.91 489.924 537.4 489.813 518.182C489.756 508.161 493.988 499.148 500.724 492.756L414.014 493.142C396.076 493.222 381.598 507.688 381.678 525.471L382.355 677.214C382.434 694.997 397.04 709.333 414.978 709.253L537.275 708.707C555.212 708.627 569.69 694.162 569.611 676.379L569.058 552.454ZM517.911 365.052L489.797 365.252L510.901 252.994L485.302 253.108L455.664 260.047L451.185 284.261L480.304 277.176L463.754 365.368L433.717 365.502L429.235 389.124L513.429 388.674L517.911 365.052ZM489.011 719.872C463.752 719.985 439.239 720.094 420.649 720.177C419.447 724.606 415.86 737.981 405.286 775.662C393.016 819.381 375.038 878.119 375.038 878.12C375.038 878.12 343.434 872.752 328.7 872.999C313.966 873.246 312.95 881.965 313.575 882.463C314.2 882.961 337.623 891.601 363.601 901.55C389.579 911.5 416.857 924.251 419.626 922.017C420.992 920.915 439.057 872.728 456.319 821.601C472.546 773.543 486.51 728.033 489.011 719.872ZM429.517 253.431L401.477 253.63L335.102 334.424L329.965 360.49L383.974 360.175L378.407 389.424L404.006 389.31L409.498 359.987L424.443 359.92L428.78 336.891L413.835 336.958L429.517 253.431ZM398.064 284.572L388.384 337.145L354.425 337.297L398.064 284.572ZM371.075 520.487C363.334 525.941 335.625 545.48 312.438 561.145C286.122 578.923 251.444 602.08 251.436 602.628C251.418 603.817 251.598 613.864 255.751 624.582C259.904 635.3 267.573 644.71 268.715 644.797C269.325 644.843 298.435 629.656 327.617 613.608C348.973 601.863 364.401 592.883 370.864 589.147C370.758 565.494 370.651 541.427 370.58 525.52C370.572 523.79 370.885 522.163 371.075 520.487ZM348.653 253.94L261.129 254.404L256.573 278.1L314.133 277.769L247.973 390.228L276.975 390.025L345.038 272.97L348.653 253.94ZM254.979 650.481C254.245 647.698 246.717 631.561 243.979 622.711C241.241 613.861 238.961 605.417 236.587 591.004C234.985 581.28 230.353 558.558 228.514 555.896C224.366 549.897 214.598 557.319 212.36 566.992C210.122 576.666 218.375 589.974 213.896 596.21C209.418 602.447 185.881 599.198 179.118 611.829C172.355 624.46 186.555 646.641 192.177 653.425C197.8 660.208 207.387 667.207 217.981 665.961C228.574 664.715 255.713 653.264 254.979 650.481ZM218.1 460.574C198.527 440.706 186.336 413.488 186.164 383.401L185.394 260.661C185.383 258.65 185.57 256.726 185.664 254.741C161.604 265.753 143.885 307.162 144.168 356.583C144.499 414.297 169.261 460.978 199.457 460.805C199.476 460.805 199.511 460.805 199.531 460.805L218.1 460.574Z"
      fill="#fff" fill-rule="nonzero" opacity="1" stroke="#fff" stroke-linecap="butt" stroke-linejoin="round"
      stroke-width="1.32217"/>
</g>
</svg>
